<svg width="512" height="350" viewBox="0 0 512 350" fill="none" xmlns="http://www.w3.org/2000/svg">
<path d="M256 198.451L351.748 103.356L384 135.729L417.26 103.356L512 198.451H460.598V312.768H408.189V257.127H358.803V312.768H305.386V198.451H256Z" fill="#879472"/>
<rect width="71.247" height="71.2509" transform="matrix(0.715518 -0.698595 0.697117 0.716958 335.246 50.0914)" fill="#879472"/>
<path d="M0 198.451L95.748 103.356L128 135.729L161.26 103.356L256 198.451H204.598V312.768H152.189V257.127H102.803V312.768H49.3858V198.451H0Z" fill="#64675A"/>
<rect width="71.247" height="71.2509" transform="matrix(0.715518 -0.698595 0.697117 0.716958 78.9224 50.0914)" fill="#64675A"/>
<path d="M125.388 232.24L223.09 134.768L256 167.95L289.939 134.768L386.612 232.24H334.162V349.415H280.683V292.383H230.289V349.415H175.781V232.24H125.388Z" fill="#D6CDBB"/>
<rect width="71.247" height="71.2509" transform="matrix(0.715518 -0.698595 0.697117 0.716958 207.084 84.7463)" fill="#D6CDBB"/>
</svg>
